HIERARCHY
ROOT SpineBase
{
  OFFSET 0.000000 0.000000 0.000000
  CHANNELS 6 Xposition Yposition Zposition Zrotation Xrotation Yrotation
  JOINT SpineMid
  {
    OFFSET 0.000000 25.515287 0.000000
    CHANNELS 3 Zrotation Xrotation Yrotation
    JOINT SpineShoulder
    {
      OFFSET 0.131864 18.927448 -0.745443
      CHANNELS 3 Zrotation Xrotation Yrotation
      JOINT Neck
      {
        OFFSET 0.081938 6.254444 -0.544876
        CHANNELS 3 Zrotation Xrotation Yrotation
        JOINT Head
        {
          OFFSET -4.924247 12.494467 -3.497435
          CHANNELS 3 Zrotation Xrotation Yrotation
          End Site
          {
            OFFSET 0 0 0
          }
        }
      }
      JOINT ShoulderLeft
      {
        OFFSET -16.028436 -4.795270 6.380097
        CHANNELS 3 Zrotation Xrotation Yrotation
        JOINT ElbowLeft
        {
          OFFSET -0.711579 -23.152401 -1.318414
          CHANNELS 3 Zrotation Xrotation Yrotation
          JOINT WristLeft
          {
            OFFSET -0.988840 -14.100027 -12.790354
            CHANNELS 3 Zrotation Xrotation Yrotation
            JOINT HandLeft
            {
              OFFSET 0.515589 0.715426 -2.412258
              CHANNELS 3 Zrotation Xrotation Yrotation
              JOINT HandTipLeft
              {
                OFFSET 3.748342 -1.591362 -3.327186
                CHANNELS 3 Zrotation Xrotation Yrotation
                End Site
                {
                  OFFSET 0 0 0
                }
              }
              JOINT ThumbLeft
              {
                OFFSET -1.241491 1.027853 -0.864898
                CHANNELS 3 Zrotation Xrotation Yrotation
                End Site
                {
                  OFFSET 0 0 0
                }
              }
            }
          }
        }
      }
      JOINT ShoulderRight
      {
        OFFSET 13.599104 -3.024124 -8.024551
        CHANNELS 3 Zrotation Xrotation Yrotation
        JOINT ElbowRight
        {
          OFFSET 4.368019 -20.469281 -2.636279
          CHANNELS 3 Zrotation Xrotation Yrotation
          JOINT WristRight
          {
            OFFSET -8.227531 -13.573941 -7.628746
            CHANNELS 3 Zrotation Xrotation Yrotation
            JOINT HandRight
            {
              OFFSET -4.087680 -1.845955 -2.218454
              CHANNELS 3 Zrotation Xrotation Yrotation
              JOINT HandTipRight
              {
                OFFSET -3.431060 -7.876731 -4.620635
                CHANNELS 3 Zrotation Xrotation Yrotation
                End Site
                {
                  OFFSET 0 0 0
                }
              }
              JOINT ThumbRight
              {
                OFFSET -1.057790 1.117583 -3.078830
                CHANNELS 3 Zrotation Xrotation Yrotation
                End Site
                {
                  OFFSET 0 0 0
                }
              }
            }
          }
        }
      }
    }
  }
  JOINT HipLeft
  {
    OFFSET -5.711710 -0.132414 0.737521
    CHANNELS 3 Zrotation Xrotation Yrotation
    JOINT KneeLeft
    {
      OFFSET 0.124026 -38.549957 9.927234
      CHANNELS 3 Zrotation Xrotation Yrotation
      JOINT AnkleLeft
      {
        OFFSET 0.765765 -31.518355 7.352222
        CHANNELS 3 Zrotation Xrotation Yrotation
        JOINT FootLeft
        {
          OFFSET 2.916293 -4.836912 -9.737107
          CHANNELS 3 Zrotation Xrotation Yrotation
          End Site
          {
            OFFSET 0 0 0
          }
        }
      }
    }
  }
  JOINT HipRight
  {
    OFFSET 6.232318 0.989324 -6.842786
    CHANNELS 3 Zrotation Xrotation Yrotation
    JOINT KneeRight
    {
      OFFSET -26.983870 -8.457356 -29.759428
      CHANNELS 3 Zrotation Xrotation Yrotation
      JOINT AnkleRight
      {
        OFFSET 16.457034 -31.885830 25.008084
        CHANNELS 3 Zrotation Xrotation Yrotation
        JOINT FootRight
        {
          OFFSET -4.171709 -4.556914 -11.466657
          CHANNELS 3 Zrotation Xrotation Yrotation
          End Site
          {
            OFFSET 0 0 0
          }
        }
      }
    }
  }
}
MOTION
Frames: 10
Frame Time: 0.033333
-31.245517 74.877831 365.092682 0.593089 -3.140410 18.650642 0.287921 0.064848 -18.588213 -0.328899 -0.339092 0.044389 -1.351432 -5.248825 -3.641097 0.000000 0.000000 0.000000 -3.521723 1.850777 0.279208 3.525753 22.020215 -1.922943 -25.058578 -48.800111 -33.168561 -11.152001 12.660310 91.898458 0.000000 0.000000 0.000000 0.000000 0.000000 0.000000 -2.036983 1.112124 -0.292667 -2.914839 4.320467 1.652257 -2.579357 -2.558480 6.985461 -1.251145 2.629934 -4.153309 0.000000 0.000000 0.000000 0.000000 0.000000 0.000000 -0.257898 1.963528 -18.691313 2.184857 1.998929 0.477545 -10.531849 -20.578072 4.865154 0.000000 0.000000 0.000000 -9.973936 23.669318 -14.522307 13.623917 -11.521499 1.238957 2.999381 -5.947429 -2.879342 0.000000 0.000000 0.000000
-30.998318 74.980649 364.656717 0.733143 -2.626812 18.810121 -0.050733 -0.132619 -18.744441 -0.333846 -0.311782 0.035726 -2.990586 -6.233182 -4.479852 0.000000 0.000000 0.000000 -4.370542 3.036603 0.375996 7.486978 16.400250 -4.471868 -16.310271 -38.451293 -18.660197 -12.266109 3.197957 77.140639 0.000000 0.000000 0.000000 0.000000 0.000000 0.000000 -2.629071 0.926236 -0.158795 -2.612475 4.411822 1.698009 -6.716378 0.891791 4.446334 -0.014139 1.563073 -1.038341 0.000000 0.000000 0.000000 0.000000 0.000000 0.000000 -1.088459 1.086700 -18.928082 2.485524 2.457436 0.533017 -10.123784 -21.030065 3.276347 0.000000 0.000000 0.000000 -9.842591 22.367296 -14.600075 13.411991 -11.524623 0.783720 2.646741 -5.139067 -3.024397 0.000000 0.000000 0.000000
-30.779959 75.111048 364.295665 0.835696 -2.228348 18.520820 -0.402738 -0.293582 -18.457173 -0.294045 -0.239495 0.026966 -5.243899 -7.059542 -5.520752 0.000000 0.000000 0.000000 -5.125470 3.929025 0.480403 9.944591 12.724211 -5.681423 -12.286174 -23.626590 -15.093697 -11.961516 -11.124927 63.056580 0.000000 0.000000 0.000000 0.000000 0.000000 0.000000 -3.293238 0.744109 -0.020446 -2.710059 4.693051 1.943340 -10.751769 4.875044 1.767218 1.694190 0.774855 2.111251 0.000000 0.000000 0.000000 0.000000 0.000000 0.000000 -1.904775 0.325801 -18.743272 3.039190 3.057149 0.637517 -10.248063 -21.703259 2.429684 0.000000 0.000000 0.000000 -9.568903 20.728912 -14.403422 13.084119 -11.412392 0.495216 2.127453 -4.139067 -3.307071 0.000000 0.000000 0.000000
-30.674541 75.245888 364.060249 0.608996 -2.118095 17.963945 -0.818272 -0.376689 -17.923014 -0.293183 -0.170184 -0.002690 -6.677407 -7.205405 -6.240455 0.000000 0.000000 0.000000 -5.510462 4.713957 0.648608 11.132284 11.458914 -5.775111 -9.331465 -13.604181 -13.731335 -11.637356 -18.150866 52.206135 0.000000 0.000000 0.000000 0.000000 0.000000 0.000000 -3.330305 0.679628 0.099269 -3.403282 5.068140 2.502104 -12.043389 7.961461 -1.114221 0.759249 1.839135 5.249950 0.000000 0.000000 0.000000 0.000000 0.000000 0.000000 -2.175552 -0.174236 -18.284050 3.560792 3.443319 0.730343 -10.680301 -22.609090 1.973970 0.000000 0.000000 0.000000 -8.702636 19.070408 -14.415322 12.563116 -11.244166 0.580151 1.603105 -3.030982 -3.569085 0.000000 0.000000 0.000000
-30.708093 75.382882 363.996688 0.050357 -2.323986 17.265226 -1.183429 -0.346531 -17.264181 -0.358131 -0.098519 -0.049741 -7.468982 -6.918853 -6.724608 0.000000 0.000000 0.000000 -5.859737 3.128286 0.838112 11.474284 15.629998 -5.290473 -11.216053 -21.535736 -18.149484 -3.894074 3.123137 46.063502 0.000000 0.000000 0.000000 0.000000 0.000000 0.000000 -3.006113 0.603513 0.207510 -4.366524 5.731492 3.238697 -11.332048 8.593025 -2.196722 0.241054 -0.428598 6.783680 0.000000 0.000000 0.000000 0.000000 0.000000 0.000000 -1.800505 -0.307984 -17.649471 3.856032 3.553791 0.781375 -10.115017 -22.616303 -0.423712 0.000000 0.000000 0.000000 -7.389921 17.662182 -14.503741 12.082454 -11.041120 1.003203 1.058036 -1.995232 -3.935953 0.000000 0.000000 0.000000
-30.875768 75.500322 364.167142 -0.785610 -2.912253 16.365426 -1.475249 -0.210670 -16.417565 -0.396552 -0.010713 -0.102635 -7.750975 -6.245744 -6.983733 0.000000 0.000000 0.000000 -5.781958 1.826406 1.011379 12.956875 18.028727 -5.930294 -19.850919 -38.167355 -24.424900 -1.268159 34.506039 52.356615 0.000000 0.000000 0.000000 0.000000 0.000000 0.000000 -2.736383 0.565966 0.333234 -5.126327 6.564536 4.056544 -8.384297 7.283799 -2.731759 -0.217612 -5.160298 7.618501 0.000000 0.000000 0.000000 0.000000 0.000000 0.000000 -0.768080 0.109107 -16.772922 3.904624 3.321204 0.794413 -9.391255 -22.154838 -2.494192 0.000000 0.000000 0.000000 -5.780246 16.634972 -14.407292 11.685357 -10.738598 1.621509 0.511293 -1.166305 -4.412305 0.000000 0.000000 0.000000
-30.917399 75.598468 364.160768 -1.535791 -3.281599 15.631679 -1.812740 -0.182112 -15.738534 -0.383571 0.042651 -0.148854 -7.766049 -5.657829 -7.122436 0.000000 0.000000 0.000000 -4.813064 6.062158 1.280902 12.511581 12.858287 -4.879307 -23.662166 -48.472541 -23.324670 -9.177385 19.989049 58.344707 0.000000 0.000000 0.000000 0.000000 0.000000 0.000000 -2.700955 0.280795 0.416378 -5.645631 7.660669 4.810027 -3.347065 4.343108 -3.221188 -1.477931 -10.543367 8.528913 0.000000 0.000000 0.000000 0.000000 0.000000 0.000000 -0.066071 0.195704 -16.102164 4.031973 3.240707 0.816701 -7.804710 -20.307162 -5.212255 0.000000 0.000000 0.000000 -4.488864 15.545625 -13.938736 11.595497 -10.458960 1.937805 -0.185739 -0.393821 -5.045110 0.000000 0.000000 0.000000
-30.976637 75.674863 364.174751 -2.326801 -3.688242 15.171922 -2.050508 -0.169088 -15.338839 -0.344051 0.073188 -0.190323 -7.514705 -4.915228 -7.082346 0.000000 0.000000 0.000000 -3.530759 11.671495 1.528036 12.250691 4.902968 -4.033149 -18.997045 -51.236238 -12.432826 -13.057613 18.780579 55.909140 0.000000 0.000000 0.000000 0.000000 0.000000 0.000000 -2.429821 0.164930 0.470904 -6.786641 8.561016 5.804257 0.789350 1.560924 -2.810248 -1.036313 -15.689526 8.585552 0.000000 0.000000 0.000000 0.000000 0.000000 0.000000 0.734016 0.393299 -15.706874 4.110139 3.078297 0.832940 -6.546287 -18.964608 -7.342555 0.000000 0.000000 0.000000 -3.336853 15.143843 -13.834911 11.208826 -10.178353 2.061052 -0.191686 -0.165914 -5.239149 0.000000 0.000000 0.000000
-31.062072 75.718524 364.207057 -3.097093 -4.066269 15.002690 -2.124361 -0.164489 -15.231086 -0.276289 0.087983 -0.222707 -7.258763 -4.343176 -7.049267 0.000000 0.000000 0.000000 -1.552479 19.648634 1.568056 10.580937 -5.675186 -2.354842 -16.270820 -50.389333 -7.542064 -15.156369 17.804484 59.673959 0.000000 0.000000 0.000000 0.000000 0.000000 0.000000 -2.114634 0.161585 0.507205 -8.323089 9.866412 6.627237 3.049198 -1.193003 -1.113602 0.706499 -16.819022 6.325591 0.000000 0.000000 0.000000 0.000000 0.000000 0.000000 1.630259 0.623399 -15.583583 3.989092 2.888124 0.812567 -5.383812 -17.588084 -8.694587 0.000000 0.000000 0.000000 -2.505972 15.561284 -14.130355 10.843267 -10.056985 2.228006 0.330463 -0.468686 -5.167988 0.000000 0.000000 0.000000
-31.183120 75.743050 364.237831 -3.840870 -4.399367 14.860285 -2.035938 -0.173572 -15.151389 -0.218131 0.107288 -0.247404 -6.811150 -3.873704 -6.933781 0.000000 0.000000 0.000000 -0.209044 24.659284 1.510666 8.585014 -11.122108 -0.900967 -10.443436 -61.203078 3.195912 -17.903595 29.036226 58.968018 0.000000 0.000000 0.000000 0.000000 0.000000 0.000000 -1.880790 0.257993 0.561499 -9.687462 11.741062 6.939530 2.584691 -3.772795 1.921508 3.315347 -18.774851 3.419659 0.000000 0.000000 0.000000 0.000000 0.000000 0.000000 2.577424 0.809443 -15.472107 3.824071 2.763124 0.780588 -4.741430 -16.646214 -9.191442 0.000000 0.000000 0.000000 -1.846770 16.113168 -14.293493 10.559835 -9.925062 2.309448 0.901502 -0.944872 -5.070175 0.000000 0.000000 0.000000
